<svg version="1.1" xmlns="http://www.w3.org/2000/svg" viewBox="0 0 250 250"><desc>Created with Snap</desc><defs></defs><g transform="matrix(0.0618,0,0,0.0618,52.664,146.5147)"><g transform="matrix(8.8179,0,0,8.8179,-593.5724,-2111.5724)">
<g id="gSkwkrswkb3j2">
	<g>
		<g>
			<path d="M387.88501,83.59349V316.4075H12.115V83.59349H387.88501 M391.96945,79.50903H8.03054v240.98294h383.9389V79.50903
				L391.96945,79.50903z" fill="#210070" style=""></path>
			<path d="M38.30037,67.71037l353.83911,50.25497l-30.43997,214.32426L7.86052,282.03564L38.30037,67.71037 M36.56565,65.4009
				L5.55142,283.77075l357.88281,50.82834l31.01434-218.36884L36.56565,65.4009L36.56565,65.4009z" fill="#210070" style=""></path>
			<path d="M361.69949,67.71037l30.43997,214.32527L38.30037,332.28961L7.86052,117.96535L361.69949,67.71037 M363.43423,65.4009
				L5.55142,116.23025l31.01422,218.36884l357.88293-50.82834L363.43423,65.4009L363.43423,65.4009z" fill="#210070" style=""></path>
		</g>
		<rect x="47.64159" y="114.85448" width="304.71683" height="170.29103" fill="#210070" style=""></rect>
	</g>
</g>


<desc>Created with Snap</desc><defs></defs></g><g><g transform="matrix(1,0,0,-1,0,0)"><path d="M0 98L51 124Q109 46 183 46Q239 46 256 86Q274 126 274 217Q274 283 272 423Q270 563 270 643Q270 697 271 725Q278 722 290 722Q294 722 301 722Q309 723 314 723Q331 723 344 717Q342 649 342 613Q342 556 345 429Q348 303 348 233Q348 188 347 165Q347 142 345 110Q343 79 338 64Q334 50 325 30Q317 10 305 2Q293 -5 274 -14Q256 -23 232 -26Q208 -28 176 -28Q53 -28 0 98ZM430 213Q430 253 438 302Q447 351 464 405Q481 459 515 495Q549 531 594 531Q690 531 748 444Q806 358 806 252Q806 207 796 162Q787 118 767 75Q747 32 709 3Q672 -25 622 -29Q530 -17 480 49Q430 116 430 213ZM600 479Q565 475 541 415Q517 355 510 298Q503 242 503 199Q503 143 537 95Q572 48 615 48Q646 48 671 72Q696 96 710 131Q725 167 732 203Q740 239 740 267Q740 349 703 410Q666 471 600 479ZM892 720L944 708Q947 667 948 577Q950 487 952 453Q1006 510 1082 510Q1150 510 1199 462Q1249 414 1249 334L1249 5Q1236 -1 1216 -1Q1194 -1 1176 3Q1176 11 1176 27Q1177 44 1177 52Q1177 91 1174 186Q1171 282 1171 346Q1156 438 1078 438Q1044 438 1011 419Q978 401 963 376Q966 313 967 186Q968 59 970 3Q946 -1 929 -1Q904 -1 887 5Q889 54 889 160Q889 207 888 332Q887 458 887 548Q888 639 892 720ZM1523 725L1599 720Q1627 596 1714 369Q1801 143 1829 31Q1829 2 1819 -13Q1809 -27 1794 -27Q1781 -27 1769 -17Q1758 -6 1754 13Q1745 57 1696 189Q1490 215 1437 221Q1424 185 1405 104Q1386 23 1375 -8Q1360 -26 1341 -26Q1320 -26 1305 -8Q1290 11 1290 38Q1322 155 1406 382Q1490 609 1523 725ZM1558 624Q1538 503 1447 269L1559 269Q1635 269 1686 264Q1583 485 1558 624ZM2199 381L2155 384Q2134 440 2084 440Q2062 440 2037 430Q2013 420 1997 409Q1981 399 1955 379Q1955 365 1954 288Q1954 211 1955 117Q1957 23 1959 16Q1950 -14 1924 -14Q1906 -14 1889 0Q1873 15 1869 36Q1888 357 1903 521L1948 511L1951 444Q2021 502 2071 502Q2126 502 2163 477Q2201 452 2201 404Q2201 389 2199 381ZM2263 514L2309 504Q2317 422 2323 246Q2329 71 2331 29Q2322 -2 2296 -2Q2278 -2 2261 12Q2245 27 2241 48Q2243 89 2249 261Q2255 434 2263 514ZM2277 693Q2304 693 2322 669Q2340 646 2340 616Q2340 594 2329 580Q2319 567 2301 567Q2273 567 2257 590Q2241 613 2241 644Q2241 666 2250 679Q2260 693 2277 693Z" fill="#7adac0" style=""></path></g></g></g></svg>